# xmcd CD database file
#
# Track frame offsets:
#	150
#	28664
#	59048
#	87118
#	128375
#	146671
#	176780
#	195676
#	198450
#	203015
#	206052
#	207614
#	209801
#
# Disc length: 2897 seconds
#
# Revision: 0
# Processed by: cddbd v1.5.2PL0 Copyright (c) Steve Scherf et al.
# Submitted via: CDex 1.51
#
DISCID=d30b4f0d
DTITLE=Heloísa Fernandes - Fruto
DYEAR=2013
DGENRE=Jazz
TTITLE0=Vôo
TTITLE1=Rosa
TTITLE2=Colheita
TTITLE3=Criança
TTITLE4=Fruto
TTITLE5=Trilhos Urbanos
TTITLE6=Jasmim
TTITLE7=Suite das Meninas - Beatriz
TTITLE8=Suite das Meninas - Isabel
TTITLE9=Suite das Meninas - Maria
TTITLE10=Suite das Meninas - Laura
TTITLE11=Suite das Meninas - Inês
TTITLE12=Suite das Meninas - Rita
EXTD=YEAR: 2013
EXTT0=
EXTT1=
EXTT2=
EXTT3=
EXTT4=
EXTT5=
EXTT6=
EXTT7=
EXTT8=
EXTT9=
EXTT10=
EXTT11=
EXTT12=
PLAYORDER=
